<svg xmlns="http://www.w3.org/2000/svg" xmlns:xlink="http://www.w3.org/1999/xlink" width="230" zoomAndPan="magnify" viewBox="0 0 172.5 172.499994" height="230" preserveAspectRatio="xMidYMid meet" version="1.0"><defs><g/><clipPath id="d5c3960f3d"><path d="M 0 0 L 172 0 L 172 172 L 0 172 Z M 0 0 " clip-rule="nonzero"/></clipPath><clipPath id="681dc72bb2"><path d="M 33 73.46875 L 60 73.46875 L 60 105 L 33 105 Z M 33 73.46875 " clip-rule="nonzero"/></clipPath><clipPath id="f5a8d6bd40"><path d="M 36 51 L 43 51 L 43 60 L 36 60 Z M 36 51 " clip-rule="nonzero"/></clipPath><clipPath id="685ba00033"><path d="M 20.242188 52.078125 L 56.203125 50.402344 L 58.542969 100.597656 L 22.582031 102.273438 Z M 20.242188 52.078125 " clip-rule="nonzero"/></clipPath><clipPath id="92b7508913"><path d="M 20.242188 52.078125 L 56.203125 50.402344 L 58.542969 100.597656 L 22.582031 102.273438 Z M 20.242188 52.078125 " clip-rule="nonzero"/></clipPath><clipPath id="73d4224f1c"><path d="M 20.242188 52.078125 L 56.203125 50.402344 L 58.542969 100.597656 L 22.582031 102.273438 Z M 20.242188 52.078125 " clip-rule="nonzero"/></clipPath><clipPath id="b2730bda6b"><path d="M 46 63 L 55 63 L 55 70 L 46 70 Z M 46 63 " clip-rule="nonzero"/></clipPath><clipPath id="0f54c25007"><path d="M 20.242188 52.078125 L 56.203125 50.402344 L 58.542969 100.597656 L 22.582031 102.273438 Z M 20.242188 52.078125 " clip-rule="nonzero"/></clipPath><clipPath id="cbf72af804"><path d="M 20.242188 52.078125 L 56.203125 50.402344 L 58.542969 100.597656 L 22.582031 102.273438 Z M 20.242188 52.078125 " clip-rule="nonzero"/></clipPath><clipPath id="62e0a15b66"><path d="M 20.242188 52.078125 L 56.203125 50.402344 L 58.542969 100.597656 L 22.582031 102.273438 Z M 20.242188 52.078125 " clip-rule="nonzero"/></clipPath><clipPath id="389d412773"><path d="M 24 64 L 33 64 L 33 71 L 24 71 Z M 24 64 " clip-rule="nonzero"/></clipPath><clipPath id="e2d8f16e6c"><path d="M 20.242188 52.078125 L 56.203125 50.402344 L 58.542969 100.597656 L 22.582031 102.273438 Z M 20.242188 52.078125 " clip-rule="nonzero"/></clipPath><clipPath id="6f080761ef"><path d="M 20.242188 52.078125 L 56.203125 50.402344 L 58.542969 100.597656 L 22.582031 102.273438 Z M 20.242188 52.078125 " clip-rule="nonzero"/></clipPath><clipPath id="1754b0925f"><path d="M 20.242188 52.078125 L 56.203125 50.402344 L 58.542969 100.597656 L 22.582031 102.273438 Z M 20.242188 52.078125 " clip-rule="nonzero"/></clipPath><clipPath id="b5ff88bb0d"><path d="M 25 68 L 58 68 L 58 102 L 25 102 Z M 25 68 " clip-rule="nonzero"/></clipPath><clipPath id="501dce4699"><path d="M 20.242188 52.078125 L 56.203125 50.402344 L 58.542969 100.597656 L 22.582031 102.273438 Z M 20.242188 52.078125 " clip-rule="nonzero"/></clipPath><clipPath id="4fa6c0ad02"><path d="M 20.242188 52.078125 L 56.203125 50.402344 L 58.542969 100.597656 L 22.582031 102.273438 Z M 20.242188 52.078125 " clip-rule="nonzero"/></clipPath><clipPath id="ab891fb429"><path d="M 20.242188 52.078125 L 56.203125 50.402344 L 58.542969 100.597656 L 22.582031 102.273438 Z M 20.242188 52.078125 " clip-rule="nonzero"/></clipPath><clipPath id="98f020f985"><path d="M 38 73 L 45 73 L 45 81 L 38 81 Z M 38 73 " clip-rule="nonzero"/></clipPath><clipPath id="2dcbddc023"><path d="M 20.242188 52.078125 L 56.203125 50.402344 L 58.542969 100.597656 L 22.582031 102.273438 Z M 20.242188 52.078125 " clip-rule="nonzero"/></clipPath><clipPath id="86ff28ce19"><path d="M 20.242188 52.078125 L 56.203125 50.402344 L 58.542969 100.597656 L 22.582031 102.273438 Z M 20.242188 52.078125 " clip-rule="nonzero"/></clipPath><clipPath id="6bd3e7a2ee"><path d="M 20.242188 52.078125 L 56.203125 50.402344 L 58.542969 100.597656 L 22.582031 102.273438 Z M 20.242188 52.078125 " clip-rule="nonzero"/></clipPath><clipPath id="2f9cb12327"><path d="M 38 73 L 45 73 L 45 80 L 38 80 Z M 38 73 " clip-rule="nonzero"/></clipPath><clipPath id="38476de365"><path d="M 20.242188 52.078125 L 56.203125 50.402344 L 58.542969 100.597656 L 22.582031 102.273438 Z M 20.242188 52.078125 " clip-rule="nonzero"/></clipPath><clipPath id="410dfa7672"><path d="M 20.242188 52.078125 L 56.203125 50.402344 L 58.542969 100.597656 L 22.582031 102.273438 Z M 20.242188 52.078125 " clip-rule="nonzero"/></clipPath><clipPath id="35da4a916a"><path d="M 20.242188 52.078125 L 56.203125 50.402344 L 58.542969 100.597656 L 22.582031 102.273438 Z M 20.242188 52.078125 " clip-rule="nonzero"/></clipPath><clipPath id="829b9aace2"><path d="M 38.394531 73.46875 L 44.433594 73.1875 L 44.746094 79.875 L 38.707031 80.15625 Z M 38.394531 73.46875 " clip-rule="nonzero"/></clipPath><clipPath id="cdcad918ca"><path d="M 38.394531 73.46875 L 44.433594 73.1875 L 44.746094 79.875 L 38.707031 80.15625 Z M 38.394531 73.46875 " clip-rule="nonzero"/></clipPath><clipPath id="29d2374054"><path d="M 38.394531 73.46875 L 44.433594 73.1875 L 44.746094 79.875 L 38.707031 80.15625 Z M 38.394531 73.46875 " clip-rule="nonzero"/></clipPath><clipPath id="39fdee3621"><path d="M 41.75 79.933594 C 40.421875 79.996094 39.167969 79.050781 38.765625 77.5625 C 38.292969 75.816406 39.175781 73.984375 40.738281 73.472656 C 40.976562 73.398438 41.210938 73.355469 41.445312 73.34375 C 42.773438 73.28125 44.027344 74.230469 44.429688 75.714844 C 44.902344 77.464844 44.019531 79.292969 42.457031 79.804688 C 42.222656 79.882812 41.984375 79.925781 41.75 79.933594 " clip-rule="nonzero"/></clipPath><clipPath id="9f28c0b1e0"><path d="M 38.394531 73.46875 L 44.433594 73.1875 L 44.746094 79.875 L 38.707031 80.15625 Z M 38.394531 73.46875 " clip-rule="nonzero"/></clipPath><clipPath id="efccfec457"><path d="M 41.75 79.933594 C 40.421875 79.996094 39.167969 79.050781 38.765625 77.5625 C 38.292969 75.816406 39.175781 73.984375 40.738281 73.472656 C 40.976562 73.398438 41.210938 73.355469 41.445312 73.34375 C 42.773438 73.28125 44.027344 74.230469 44.429688 75.714844 C 44.902344 77.464844 44.019531 79.292969 42.457031 79.804688 C 42.222656 79.882812 41.984375 79.925781 41.75 79.933594 " clip-rule="nonzero"/></clipPath><clipPath id="7c571291f7"><path d="M 44.703125 73.191406 L 38.183594 73.496094 L 38.492188 80.085938 L 45.011719 79.78125 Z M 44.703125 73.191406 " clip-rule="nonzero"/></clipPath><radialGradient gradientTransform="matrix(0.0464204, 0.996261, -1.001571, 0.0466678, 41.19789, 67.870964)" gradientUnits="userSpaceOnUse" r="7.149784" cx="0" id="601bed13e2" cy="0" fx="0" fy="0"><stop stop-opacity="1" stop-color="rgb(99.804688%, 99.804688%, 99.804688%)" offset="0"/><stop stop-opacity="1" stop-color="rgb(99.427795%, 99.427795%, 99.427795%)" offset="0.0078125"/><stop stop-opacity="1" stop-color="rgb(99.200439%, 99.200439%, 99.200439%)" offset="0.0195312"/><stop stop-opacity="1" stop-color="rgb(98.970032%, 98.970032%, 98.970032%)" offset="0.0234375"/><stop stop-opacity="1" stop-color="rgb(98.591614%, 98.591614%, 98.591614%)" offset="0.0351562"/><stop stop-opacity="1" stop-color="rgb(98.399353%, 98.399353%, 98.399353%)" offset="0.0390625"/><stop stop-opacity="1" stop-color="rgb(98.205566%, 98.205566%, 98.205566%)" offset="0.0429688"/><stop stop-opacity="1" stop-color="rgb(98.005676%, 98.005676%, 98.005676%)" offset="0.046875"/><stop stop-opacity="1" stop-color="rgb(97.814941%, 97.814941%, 97.814941%)" offset="0.0507812"/><stop stop-opacity="1" stop-color="rgb(97.463989%, 97.444153%, 97.444153%)" offset="0.0546875"/><stop stop-opacity="1" stop-color="rgb(97.283936%, 97.077942%, 97.077942%)" offset="0.0664062"/><stop stop-opacity="1" stop-color="rgb(97.084045%, 96.888733%, 96.888733%)" offset="0.0703125"/><stop stop-opacity="1" stop-color="rgb(96.893311%, 96.688843%, 96.688843%)" offset="0.0742188"/><stop stop-opacity="1" stop-color="rgb(96.69342%, 96.498108%, 96.498108%)" offset="0.078125"/><stop stop-opacity="1" stop-color="rgb(96.499634%, 96.30127%, 96.30127%)" offset="0.0820312"/><stop stop-opacity="1" stop-color="rgb(96.307373%, 96.102905%, 96.102905%)" offset="0.0859375"/><stop stop-opacity="1" stop-color="rgb(96.107483%, 95.91217%, 95.91217%)" offset="0.0898438"/><stop stop-opacity="1" stop-color="rgb(95.916748%, 95.710754%, 95.710754%)" offset="0.09375"/><stop stop-opacity="1" stop-color="rgb(95.53833%, 95.52002%, 95.52002%)" offset="0.0976562"/><stop stop-opacity="1" stop-color="rgb(95.297241%, 95.297241%, 95.297241%)" offset="0.101562"/><stop stop-opacity="1" stop-color="rgb(95.075989%, 95.075989%, 95.075989%)" offset="0.105469"/><stop stop-opacity="1" stop-color="rgb(94.885254%, 94.885254%, 94.885254%)" offset="0.109375"/><stop stop-opacity="1" stop-color="rgb(94.685364%, 94.685364%, 94.685364%)" offset="0.113281"/><stop stop-opacity="1" stop-color="rgb(94.494629%, 94.494629%, 94.494629%)" offset="0.117188"/><stop stop-opacity="1" stop-color="rgb(94.294739%, 94.294739%, 94.294739%)" offset="0.121094"/><stop stop-opacity="1" stop-color="rgb(94.099426%, 93.904114%, 94.099426%)" offset="0.125"/><stop stop-opacity="1" stop-color="rgb(93.908691%, 93.704224%, 93.908691%)" offset="0.128906"/><stop stop-opacity="1" stop-color="rgb(93.708801%, 93.513489%, 93.522644%)" offset="0.132812"/><stop stop-opacity="1" stop-color="rgb(93.518066%, 93.313599%, 93.313599%)" offset="0.136719"/><stop stop-opacity="1" stop-color="rgb(93.318176%, 93.122864%, 93.122864%)" offset="0.140625"/><stop stop-opacity="1" stop-color="rgb(93.077087%, 92.900085%, 92.900085%)" offset="0.144531"/><stop stop-opacity="1" stop-color="rgb(92.677307%, 92.663574%, 92.677307%)" offset="0.148438"/><stop stop-opacity="1" stop-color="rgb(92.489624%, 92.33551%, 92.489624%)" offset="0.152344"/><stop stop-opacity="1" stop-color="rgb(92.340088%, 92.190552%, 92.330933%)" offset="0.15625"/><stop stop-opacity="1" stop-color="rgb(92.196655%, 91.990662%, 91.990662%)" offset="0.160156"/><stop stop-opacity="1" stop-color="rgb(91.998291%, 91.799927%, 91.799927%)" offset="0.164062"/><stop stop-opacity="1" stop-color="rgb(91.801453%, 91.60614%, 91.60614%)" offset="0.167969"/><stop stop-opacity="1" stop-color="rgb(91.610718%, 91.404724%, 91.404724%)" offset="0.171875"/><stop stop-opacity="1" stop-color="rgb(91.226196%, 91.213989%, 91.213989%)" offset="0.175781"/><stop stop-opacity="1" stop-color="rgb(91.014099%, 90.835571%, 90.835571%)" offset="0.179688"/><stop stop-opacity="1" stop-color="rgb(90.823364%, 90.618896%, 90.618896%)" offset="0.183594"/><stop stop-opacity="1" stop-color="rgb(90.603638%, 90.39917%, 90.39917%)" offset="0.1875"/><stop stop-opacity="1" stop-color="rgb(90.362549%, 90.182495%, 90.182495%)" offset="0.191406"/><stop stop-opacity="1" stop-color="rgb(89.982605%, 89.971924%, 89.971924%)" offset="0.195312"/><stop stop-opacity="1" stop-color="rgb(89.793396%, 89.587402%, 89.587402%)" offset="0.199219"/><stop stop-opacity="1" stop-color="rgb(89.593506%, 89.398193%, 89.398193%)" offset="0.203125"/><stop stop-opacity="1" stop-color="rgb(89.399719%, 89.201355%, 89.201355%)" offset="0.207031"/><stop stop-opacity="1" stop-color="rgb(89.207458%, 88.81073%, 89.002991%)" offset="0.210938"/><stop stop-opacity="1" stop-color="rgb(88.819885%, 88.606262%, 88.812256%)" offset="0.214844"/><stop stop-opacity="1" stop-color="rgb(88.61084%, 88.415527%, 88.42926%)" offset="0.21875"/><stop stop-opacity="1" stop-color="rgb(88.420105%, 88.215637%, 88.215637%)" offset="0.222656"/><stop stop-opacity="1" stop-color="rgb(88.197327%, 87.980652%, 87.980652%)" offset="0.226562"/><stop stop-opacity="1" stop-color="rgb(87.962341%, 87.631226%, 87.631226%)" offset="0.230469"/><stop stop-opacity="1" stop-color="rgb(87.635803%, 87.484741%, 87.484741%)" offset="0.234375"/><stop stop-opacity="1" stop-color="rgb(87.489319%, 87.275696%, 87.284851%)" offset="0.238281"/><stop stop-opacity="1" stop-color="rgb(87.284851%, 86.889648%, 87.094116%)" offset="0.242188"/><stop stop-opacity="1" stop-color="rgb(86.894226%, 86.698914%, 86.894226%)" offset="0.246094"/><stop stop-opacity="1" stop-color="rgb(86.698914%, 86.503601%, 86.503601%)" offset="0.25"/><stop stop-opacity="1" stop-color="rgb(86.508179%, 86.303711%, 86.303711%)" offset="0.253906"/><stop stop-opacity="1" stop-color="rgb(86.308289%, 86.112976%, 86.112976%)" offset="0.257812"/><stop stop-opacity="1" stop-color="rgb(86.117554%, 85.731506%, 85.731506%)" offset="0.261719"/><stop stop-opacity="1" stop-color="rgb(85.740662%, 85.517883%, 85.517883%)" offset="0.265625"/><stop stop-opacity="1" stop-color="rgb(85.501099%, 85.276794%, 85.276794%)" offset="0.269531"/><stop stop-opacity="1" stop-color="rgb(85.26001%, 84.877014%, 84.877014%)" offset="0.273438"/><stop stop-opacity="1" stop-color="rgb(84.881592%, 84.686279%, 84.686279%)" offset="0.277344"/><stop stop-opacity="1" stop-color="rgb(84.690857%, 84.47876%, 84.486389%)" offset="0.28125"/><stop stop-opacity="1" stop-color="rgb(84.487915%, 84.091187%, 84.295654%)" offset="0.285156"/><stop stop-opacity="1" stop-color="rgb(84.09729%, 83.898926%, 84.09729%)" offset="0.289062"/><stop stop-opacity="1" stop-color="rgb(83.900452%, 83.705139%, 83.706665%)" offset="0.292969"/><stop stop-opacity="1" stop-color="rgb(83.709717%, 83.31604%, 83.505249%)" offset="0.296875"/><stop stop-opacity="1" stop-color="rgb(83.509827%, 83.110046%, 83.314514%)" offset="0.300781"/><stop stop-opacity="1" stop-color="rgb(83.319092%, 82.919312%, 82.93457%)" offset="0.304688"/><stop stop-opacity="1" stop-color="rgb(82.945251%, 82.588196%, 82.719421%)" offset="0.308594"/><stop stop-opacity="1" stop-color="rgb(82.70874%, 82.397461%, 82.528687%)" offset="0.3125"/><stop stop-opacity="1" stop-color="rgb(82.518005%, 82.164001%, 82.17926%)" offset="0.316406"/><stop stop-opacity="1" stop-color="rgb(82.183838%, 81.784058%, 81.988525%)" offset="0.320312"/><stop stop-opacity="1" stop-color="rgb(81.993103%, 81.593323%, 81.782532%)" offset="0.324219"/><stop stop-opacity="1" stop-color="rgb(81.791687%, 81.391907%, 81.393433%)" offset="0.328125"/><stop stop-opacity="1" stop-color="rgb(81.401062%, 81.001282%, 81.199646%)" offset="0.332031"/><stop stop-opacity="1" stop-color="rgb(81.202698%, 80.802917%, 81.007385%)" offset="0.335938"/><stop stop-opacity="1" stop-color="rgb(81.011963%, 80.612183%, 80.619812%)" offset="0.339844"/><stop stop-opacity="1" stop-color="rgb(80.628967%, 80.229187%, 80.410767%)" offset="0.34375"/><stop stop-opacity="1" stop-color="rgb(80.415344%, 80.015564%, 80.220032%)" offset="0.347656"/><stop stop-opacity="1" stop-color="rgb(80.175781%, 79.774475%, 79.820251%)" offset="0.351562"/><stop stop-opacity="1" stop-color="rgb(79.776001%, 79.374695%, 79.580688%)" offset="0.355469"/><stop stop-opacity="1" stop-color="rgb(79.585266%, 79.185486%, 79.367065%)" offset="0.359375"/><stop stop-opacity="1" stop-color="rgb(79.376221%, 78.97644%, 78.97644%)" offset="0.363281"/><stop stop-opacity="1" stop-color="rgb(78.990173%, 78.590393%, 78.590393%)" offset="0.367188"/><stop stop-opacity="1" stop-color="rgb(78.604126%, 78.204346%, 78.204346%)" offset="0.375"/><stop stop-opacity="1" stop-color="rgb(78.213501%, 77.813721%, 77.813721%)" offset="0.378906"/><stop stop-opacity="1" stop-color="rgb(77.822876%, 77.468872%, 77.607727%)" offset="0.382812"/><stop stop-opacity="1" stop-color="rgb(77.612305%, 77.310181%, 77.462769%)" offset="0.386719"/><stop stop-opacity="1" stop-color="rgb(77.46582%, 77.122498%, 77.13623%)" offset="0.390625"/><stop stop-opacity="1" stop-color="rgb(77.116394%, 76.722717%, 76.899719%)" offset="0.394531"/><stop stop-opacity="1" stop-color="rgb(76.881409%, 76.481628%, 76.660156%)" offset="0.398438"/><stop stop-opacity="1" stop-color="rgb(76.669312%, 76.269531%, 76.281738%)" offset="0.402344"/><stop stop-opacity="1" stop-color="rgb(76.286316%, 75.886536%, 76.091003%)" offset="0.40625"/><stop stop-opacity="1" stop-color="rgb(76.095581%, 75.695801%, 75.888062%)" offset="0.410156"/><stop stop-opacity="1" stop-color="rgb(75.897217%, 75.497437%, 75.497437%)" offset="0.414062"/><stop stop-opacity="1" stop-color="rgb(75.506592%, 75.106812%, 75.106812%)" offset="0.417969"/><stop stop-opacity="1" stop-color="rgb(75.305176%, 74.716187%, 74.905396%)" offset="0.421875"/><stop stop-opacity="1" stop-color="rgb(75.114441%, 74.510193%, 74.714661%)" offset="0.425781"/><stop stop-opacity="1" stop-color="rgb(74.734497%, 74.319458%, 74.334717%)" offset="0.429688"/><stop stop-opacity="1" stop-color="rgb(74.343872%, 73.944092%, 74.119568%)" offset="0.433594"/><stop stop-opacity="1" stop-color="rgb(74.102783%, 73.703003%, 73.878479%)" offset="0.4375"/><stop stop-opacity="1" stop-color="rgb(73.86322%, 73.46344%, 73.46344%)" offset="0.441406"/><stop stop-opacity="1" stop-color="rgb(73.483276%, 73.072815%, 73.083496%)" offset="0.445312"/><stop stop-opacity="1" stop-color="rgb(73.292542%, 72.688293%, 72.892761%)" offset="0.449219"/><stop stop-opacity="1" stop-color="rgb(73.091125%, 72.497559%, 72.691345%)" offset="0.453125"/><stop stop-opacity="1" stop-color="rgb(72.7005%, 72.351074%, 72.351074%)" offset="0.457031"/><stop stop-opacity="1" stop-color="rgb(72.502136%, 72.009277%, 72.201538%)" offset="0.460938"/><stop stop-opacity="1" stop-color="rgb(72.358704%, 71.806335%, 72.010803%)" offset="0.464844"/><stop stop-opacity="1" stop-color="rgb(72.026062%, 71.615601%, 71.629333%)" offset="0.46875"/><stop stop-opacity="1" stop-color="rgb(71.638489%, 71.238708%, 71.238708%)" offset="0.472656"/><stop stop-opacity="1" stop-color="rgb(71.3974%, 70.820618%, 70.99762%)" offset="0.476562"/><stop stop-opacity="1" stop-color="rgb(71.156311%, 70.579529%, 70.756531%)" offset="0.480469"/><stop stop-opacity="1" stop-color="rgb(70.779419%, 70.365906%, 70.379639%)" offset="0.484375"/><stop stop-opacity="1" stop-color="rgb(70.59021%, 69.975281%, 70.188904%)" offset="0.488281"/><stop stop-opacity="1" stop-color="rgb(70.385742%, 69.589233%, 69.984436%)" offset="0.492188"/><stop stop-opacity="1" stop-color="rgb(69.995117%, 69.398499%, 69.593811%)" offset="0.496094"/><stop stop-opacity="1" stop-color="rgb(69.604492%, 69.203186%, 69.203186%)" offset="0.5"/><stop stop-opacity="1" stop-color="rgb(69.403076%, 68.812561%, 69.003296%)" offset="0.503906"/><stop stop-opacity="1" stop-color="rgb(69.212341%, 68.608093%, 68.812561%)" offset="0.507812"/><stop stop-opacity="1" stop-color="rgb(68.832397%, 68.417358%, 68.432617%)" offset="0.511719"/><stop stop-opacity="1" stop-color="rgb(68.617249%, 68.041992%, 68.041992%)" offset="0.515625"/><stop stop-opacity="1" stop-color="rgb(68.37616%, 67.672729%, 67.805481%)" offset="0.519531"/><stop stop-opacity="1" stop-color="rgb(67.964172%, 67.481995%, 67.614746%)" offset="0.523438"/><stop stop-opacity="1" stop-color="rgb(67.636108%, 67.269897%, 67.269897%)" offset="0.527344"/><stop stop-opacity="1" stop-color="rgb(67.49115%, 66.879272%, 66.886902%)" offset="0.53125"/><stop stop-opacity="1" stop-color="rgb(67.288208%, 66.491699%, 66.696167%)" offset="0.535156"/><stop stop-opacity="1" stop-color="rgb(66.897583%, 66.299438%, 66.497803%)" offset="0.539062"/><stop stop-opacity="1" stop-color="rgb(66.506958%, 66.105652%, 66.107178%)" offset="0.542969"/><stop stop-opacity="1" stop-color="rgb(66.305542%, 65.716553%, 65.905762%)" offset="0.546875"/><stop stop-opacity="1" stop-color="rgb(66.114807%, 65.325928%, 65.715027%)" offset="0.550781"/><stop stop-opacity="1" stop-color="rgb(65.734863%, 65.113831%, 65.335083%)" offset="0.554688"/><stop stop-opacity="1" stop-color="rgb(65.519714%, 64.923096%, 64.944458%)" offset="0.558594"/><stop stop-opacity="1" stop-color="rgb(65.278625%, 64.503479%, 64.703369%)" offset="0.5625"/><stop stop-opacity="1" stop-color="rgb(64.863586%, 64.079285%, 64.463806%)" offset="0.566406"/><stop stop-opacity="1" stop-color="rgb(64.483643%, 63.88855%, 64.073181%)" offset="0.570312"/><stop stop-opacity="1" stop-color="rgb(64.292908%, 63.682556%, 63.68866%)" offset="0.574219"/><stop stop-opacity="1" stop-color="rgb(64.091492%, 63.291931%, 63.497925%)" offset="0.578125"/><stop stop-opacity="1" stop-color="rgb(63.700867%, 62.901306%, 63.301086%)" offset="0.582031"/><stop stop-opacity="1" stop-color="rgb(63.310242%, 62.702942%, 62.910461%)" offset="0.585938"/><stop stop-opacity="1" stop-color="rgb(63.1073%, 62.557983%, 62.565613%)" offset="0.589844"/><stop stop-opacity="1" stop-color="rgb(62.916565%, 62.225342%, 62.408447%)" offset="0.59375"/><stop stop-opacity="1" stop-color="rgb(62.582397%, 61.837769%, 62.220764%)" offset="0.597656"/><stop stop-opacity="1" stop-color="rgb(62.214661%, 61.59668%, 61.79657%)" offset="0.601562"/><stop stop-opacity="1" stop-color="rgb(61.979675%, 61.357117%, 61.375427%)" offset="0.605469"/><stop stop-opacity="1" stop-color="rgb(61.766052%, 60.966492%, 61.184692%)" offset="0.609375"/><stop stop-opacity="1" stop-color="rgb(61.375427%, 60.585022%, 60.975647%)" offset="0.613281"/><stop stop-opacity="1" stop-color="rgb(60.98938%, 60.394287%, 60.585022%)" offset="0.617188"/><stop stop-opacity="1" stop-color="rgb(60.798645%, 60.194397%, 60.194397%)" offset="0.621094"/><stop stop-opacity="1" stop-color="rgb(60.603333%, 59.803772%, 59.803772%)" offset="0.625"/><stop stop-opacity="1" stop-color="rgb(60.212708%, 59.413147%, 59.603882%)" offset="0.628906"/><stop stop-opacity="1" stop-color="rgb(59.822083%, 59.022522%, 59.413147%)" offset="0.632812"/><stop stop-opacity="1" stop-color="rgb(59.613037%, 58.813477%, 59.031677%)" offset="0.636719"/><stop stop-opacity="1" stop-color="rgb(59.422302%, 58.622742%, 58.641052%)" offset="0.640625"/><stop stop-opacity="1" stop-color="rgb(59.00116%, 58.200073%, 58.399963%)" offset="0.644531"/><stop stop-opacity="1" stop-color="rgb(58.576965%, 57.777405%, 58.1604%)" offset="0.648438"/><stop stop-opacity="1" stop-color="rgb(58.38623%, 57.589722%, 57.772827%)" offset="0.652344"/><stop stop-opacity="1" stop-color="rgb(58.178711%, 57.43103%, 57.440186%)" offset="0.65625"/><stop stop-opacity="1" stop-color="rgb(57.788086%, 57.087708%, 57.296753%)" offset="0.660156"/><stop stop-opacity="1" stop-color="rgb(57.447815%, 56.697083%, 57.098389%)" offset="0.664062"/><stop stop-opacity="1" stop-color="rgb(57.299805%, 56.500244%, 56.707764%)" offset="0.667969"/><stop stop-opacity="1" stop-color="rgb(57.110596%, 56.309509%, 56.317139%)" offset="0.671875"/><stop stop-opacity="1" stop-color="rgb(56.726074%, 55.926514%, 55.926514%)" offset="0.675781"/><stop stop-opacity="1" stop-color="rgb(56.335449%, 55.535889%, 55.714417%)" offset="0.679688"/><stop stop-opacity="1" stop-color="rgb(55.944824%, 55.145264%, 55.523682%)" offset="0.683594"/><stop stop-opacity="1" stop-color="rgb(55.703735%, 54.904175%, 55.104065%)" offset="0.6875"/><stop stop-opacity="1" stop-color="rgb(55.462646%, 54.663086%, 54.678345%)" offset="0.691406"/><stop stop-opacity="1" stop-color="rgb(55.072021%, 54.272461%, 54.48761%)" offset="0.695312"/><stop stop-opacity="1" stop-color="rgb(54.6875%, 53.881836%, 54.281616%)" offset="0.699219"/><stop stop-opacity="1" stop-color="rgb(54.498291%, 53.492737%, 53.890991%)" offset="0.703125"/><stop stop-opacity="1" stop-color="rgb(54.301453%, 53.29895%, 53.500366%)" offset="0.707031"/><stop stop-opacity="1" stop-color="rgb(53.910828%, 53.106689%, 53.109741%)" offset="0.710938"/><stop stop-opacity="1" stop-color="rgb(53.520203%, 52.719116%, 52.906799%)" offset="0.714844"/><stop stop-opacity="1" stop-color="rgb(53.311157%, 52.374268%, 52.716064%)" offset="0.71875"/><stop stop-opacity="1" stop-color="rgb(53.120422%, 52.210999%, 52.381897%)" offset="0.722656"/><stop stop-opacity="1" stop-color="rgb(52.703857%, 51.974487%, 52.015686%)" offset="0.726562"/><stop stop-opacity="1" stop-color="rgb(52.313232%, 51.556396%, 51.780701%)" offset="0.730469"/><stop stop-opacity="1" stop-color="rgb(51.980591%, 51.165771%, 51.567078%)" offset="0.734375"/><stop stop-opacity="1" stop-color="rgb(51.789856%, 50.784302%, 51.176453%)" offset="0.738281"/><stop stop-opacity="1" stop-color="rgb(51.585388%, 50.595093%, 50.785828%)" offset="0.742188"/><stop stop-opacity="1" stop-color="rgb(51.194763%, 50.395203%, 50.395203%)" offset="0.746094"/><stop stop-opacity="1" stop-color="rgb(50.804138%, 50.004578%, 50.19989%)" offset="0.75"/><stop stop-opacity="1" stop-color="rgb(50.604248%, 49.613953%, 50.009155%)" offset="0.753906"/><stop stop-opacity="1" stop-color="rgb(50.413513%, 49.223328%, 49.623108%)" offset="0.757812"/><stop stop-opacity="1" stop-color="rgb(50.032043%, 49.012756%, 49.232483%)" offset="0.761719"/><stop stop-opacity="1" stop-color="rgb(49.641418%, 48.822021%, 48.841858%)" offset="0.765625"/><stop stop-opacity="1" stop-color="rgb(49.221802%, 48.400879%, 48.600769%)" offset="0.769531"/><stop stop-opacity="1" stop-color="rgb(48.982239%, 47.964478%, 48.35968%)" offset="0.773438"/><stop stop-opacity="1" stop-color="rgb(48.770142%, 47.636414%, 47.972107%)" offset="0.777344"/><stop stop-opacity="1" stop-color="rgb(48.379517%, 47.491455%, 47.631836%)" offset="0.78125"/><stop stop-opacity="1" stop-color="rgb(47.988892%, 47.288513%, 47.291565%)" offset="0.785156"/><stop stop-opacity="1" stop-color="rgb(47.648621%, 46.897888%, 47.099304%)" offset="0.789062"/><stop stop-opacity="1" stop-color="rgb(47.50061%, 46.507263%, 46.905518%)" offset="0.792969"/><stop stop-opacity="1" stop-color="rgb(47.309875%, 46.116638%, 46.516418%)" offset="0.796875"/><stop stop-opacity="1" stop-color="rgb(46.925354%, 45.910645%, 46.125793%)" offset="0.800781"/><stop stop-opacity="1" stop-color="rgb(46.534729%, 45.71991%, 45.735168%)" offset="0.804688"/><stop stop-opacity="1" stop-color="rgb(46.144104%, 45.344543%, 45.518494%)" offset="0.808594"/><stop stop-opacity="1" stop-color="rgb(45.903015%, 44.903564%, 45.278931%)" offset="0.8125"/><stop stop-opacity="1" stop-color="rgb(45.663452%, 44.477844%, 44.863892%)" offset="0.816406"/><stop stop-opacity="1" stop-color="rgb(45.272827%, 44.288635%, 44.473267%)" offset="0.820312"/><stop stop-opacity="1" stop-color="rgb(44.888306%, 44.082642%, 44.088745%)" offset="0.824219"/><stop stop-opacity="1" stop-color="rgb(44.697571%, 43.692017%, 43.89801%)" offset="0.828125"/><stop stop-opacity="1" stop-color="rgb(44.500732%, 43.301392%, 43.701172%)" offset="0.832031"/><stop stop-opacity="1" stop-color="rgb(44.110107%, 42.910767%, 43.310547%)" offset="0.835938"/><stop stop-opacity="1" stop-color="rgb(43.719482%, 42.706299%, 42.919922%)" offset="0.839844"/><stop stop-opacity="1" stop-color="rgb(43.328857%, 42.56134%, 42.575073%)" offset="0.84375"/><stop stop-opacity="1" stop-color="rgb(43.11676%, 42.233276%, 42.411804%)" offset="0.847656"/><stop stop-opacity="1" stop-color="rgb(42.881775%, 41.796875%, 42.175293%)" offset="0.851562"/><stop stop-opacity="1" stop-color="rgb(42.512512%, 41.357422%, 41.757202%)" offset="0.855469"/><stop stop-opacity="1" stop-color="rgb(42.166138%, 40.98053%, 41.366577%)" offset="0.859375"/><stop stop-opacity="1" stop-color="rgb(41.784668%, 40.789795%, 40.975952%)" offset="0.863281"/><stop stop-opacity="1" stop-color="rgb(41.593933%, 40.585327%, 40.589905%)" offset="0.867188"/><stop stop-opacity="1" stop-color="rgb(41.394043%, 40.194702%, 40.39917%)" offset="0.871094"/><stop stop-opacity="1" stop-color="rgb(41.003418%, 39.804077%, 40.203857%)" offset="0.875"/><stop stop-opacity="1" stop-color="rgb(40.612793%, 39.413452%, 39.813232%)" offset="0.878906"/><stop stop-opacity="1" stop-color="rgb(40.222168%, 39.208984%, 39.422607%)" offset="0.882812"/><stop stop-opacity="1" stop-color="rgb(39.831543%, 39.01825%, 39.031982%)" offset="0.886719"/><stop stop-opacity="1" stop-color="rgb(39.61792%, 38.641357%, 38.816833%)" offset="0.890625"/><stop stop-opacity="1" stop-color="rgb(39.376831%, 38.200378%, 38.577271%)" offset="0.894531"/><stop stop-opacity="1" stop-color="rgb(38.960266%, 37.763977%, 38.160706%)" offset="0.898438"/><stop stop-opacity="1" stop-color="rgb(38.569641%, 37.435913%, 37.773132%)" offset="0.902344"/><stop stop-opacity="1" stop-color="rgb(38.186646%, 37.290955%, 37.431335%)" offset="0.90625"/><stop stop-opacity="1" stop-color="rgb(37.995911%, 37.088013%, 37.091064%)" offset="0.910156"/><stop stop-opacity="1" stop-color="rgb(37.797546%, 36.697388%, 36.898804%)" offset="0.914062"/><stop stop-opacity="1" stop-color="rgb(37.45575%, 36.306763%, 36.705017%)" offset="0.917969"/><stop stop-opacity="1" stop-color="rgb(37.115479%, 35.916138%, 36.315918%)" offset="0.921875"/><stop stop-opacity="1" stop-color="rgb(36.726379%, 35.525513%, 35.925293%)" offset="0.925781"/><stop stop-opacity="1" stop-color="rgb(36.514282%, 35.314941%, 35.534668%)" offset="0.929688"/><stop stop-opacity="1" stop-color="rgb(36.323547%, 35.124207%, 35.319519%)" offset="0.933594"/><stop stop-opacity="1" stop-color="rgb(35.903931%, 34.703064%, 35.07843%)" offset="0.9375"/><stop stop-opacity="1" stop-color="rgb(35.462952%, 34.263611%, 34.663391%)" offset="0.941406"/><stop stop-opacity="1" stop-color="rgb(35.072327%, 33.872986%, 34.272766%)" offset="0.945312"/><stop stop-opacity="1" stop-color="rgb(34.687805%, 33.488464%, 33.882141%)" offset="0.949219"/><stop stop-opacity="1" stop-color="rgb(34.49707%, 33.297729%, 33.493042%)" offset="0.953125"/><stop stop-opacity="1" stop-color="rgb(34.300232%, 33.100891%, 33.299255%)" offset="0.957031"/><stop stop-opacity="1" stop-color="rgb(33.909607%, 32.710266%, 33.106995%)" offset="0.960938"/><stop stop-opacity="1" stop-color="rgb(33.518982%, 32.365417%, 32.719421%)" offset="0.964844"/><stop stop-opacity="1" stop-color="rgb(33.128357%, 32.025146%, 32.374573%)" offset="0.96875"/><stop stop-opacity="1" stop-color="rgb(32.91626%, 31.637573%, 32.034302%)" offset="0.972656"/><stop stop-opacity="1" stop-color="rgb(32.681274%, 31.396484%, 31.620789%)" offset="0.976562"/><stop stop-opacity="1" stop-color="rgb(32.313538%, 31.156921%, 31.3797%)" offset="0.980469"/><stop stop-opacity="1" stop-color="rgb(31.967163%, 30.766296%, 31.166077%)" offset="0.984375"/><stop stop-opacity="1" stop-color="rgb(31.576538%, 30.375671%, 30.775452%)" offset="0.988281"/><stop stop-opacity="1" stop-color="rgb(31.190491%, 29.989624%, 30.389404%)" offset="0.992188"/><stop stop-opacity="1" stop-color="rgb(30.999756%, 29.798889%, 30.198669%)" offset="1"/></radialGradient></defs><g clip-path="url(#d5c3960f3d)"><path fill="#ffffff" d="M 0 0 L 172.5 0 L 172.5 180 L 0 180 Z M 0 0 " fill-opacity="1" fill-rule="nonzero"/><path fill="#ffffff" d="M 0 0 L 172.5 0 L 172.5 172.5 L 0 172.5 Z M 0 0 " fill-opacity="1" fill-rule="nonzero"/><path fill="#ffffff" d="M 0 0 L 172.5 0 L 172.5 172.5 L 0 172.5 Z M 0 0 " fill-opacity="1" fill-rule="nonzero"/></g><g clip-path="url(#681dc72bb2)"><path fill="#1082ce" d="M 45.921875 81.070312 C 45.761719 80.191406 45.523438 79.371094 45.472656 78.539062 C 45.382812 76.996094 46.175781 75.941406 47.601562 75.402344 C 48.019531 75.246094 48.375 74.910156 48.851562 74.832031 C 49.226562 74.765625 49.433594 74.871094 49.515625 75.238281 C 49.613281 75.644531 49.457031 75.90625 49.058594 75.941406 C 48.730469 75.964844 48.394531 75.925781 48.058594 75.933594 C 47.953125 75.933594 47.851562 75.972656 47.75 76.003906 C 46.546875 76.410156 45.898438 77.425781 46.066406 78.777344 C 46.140625 79.410156 46.375 80.019531 46.535156 80.644531 C 46.59375 80.867188 46.714844 80.917969 46.949219 80.886719 C 47.710938 80.765625 48.472656 80.667969 49.230469 80.589844 C 49.484375 80.566406 49.5625 80.464844 49.59375 80.222656 C 49.8125 78.839844 50.933594 77.957031 52.308594 78.0625 C 53.574219 78.160156 54.570312 79.265625 54.589844 80.585938 C 54.609375 81.90625 53.597656 83.019531 52.261719 83.152344 C 51.132812 83.261719 50.179688 82.59375 49.625 81.292969 C 49.207031 81.332031 48.773438 81.355469 48.339844 81.410156 C 47.910156 81.460938 47.484375 81.539062 47.011719 81.613281 C 47.066406 81.738281 47.089844 81.835938 47.136719 81.925781 C 47.753906 83.21875 48.742188 84.214844 49.652344 85.28125 C 49.675781 85.3125 49.710938 85.359375 49.734375 85.359375 C 50.355469 85.425781 50.6875 85.960938 51.167969 86.257812 C 52.675781 87.199219 55.230469 86.894531 56.449219 85.59375 C 56.667969 85.359375 56.824219 85.046875 56.976562 84.75 C 57.179688 84.363281 57.390625 84.003906 57.804688 83.808594 C 57.894531 83.761719 57.984375 83.648438 58.023438 83.546875 C 58.558594 82.144531 59.113281 80.734375 59.171875 79.207031 C 59.203125 78.292969 59.210938 77.339844 59.035156 76.445312 C 58.746094 74.949219 57.699219 74.210938 56.273438 74.375 C 55.882812 74.417969 55.507812 74.664062 55.121094 74.78125 C 54.738281 74.898438 54.558594 74.78125 54.457031 74.386719 C 54.347656 73.953125 54.496094 73.710938 54.941406 73.671875 C 55.28125 73.648438 55.644531 73.46875 55.957031 73.765625 C 55.984375 73.789062 56.0625 73.765625 56.113281 73.757812 C 58.164062 73.652344 59.351562 74.609375 59.726562 76.671875 C 59.984375 78.09375 59.808594 79.488281 59.527344 80.878906 C 59.34375 81.777344 59.152344 82.667969 58.914062 83.546875 C 58.804688 83.945312 58.546875 84.304688 58.398438 84.699219 C 58.195312 85.222656 58.074219 85.777344 57.847656 86.285156 C 57.3125 87.488281 56.675781 88.617188 55.46875 89.25 C 55.707031 90.15625 55.972656 91.027344 56.164062 91.910156 C 56.644531 94.132812 56.695312 96.351562 55.941406 98.527344 C 54.824219 101.722656 52.554688 103.726562 49.367188 104.519531 C 44.582031 105.71875 40.265625 104.566406 36.730469 101.113281 C 32.273438 96.777344 32.449219 89.914062 36.964844 85.492188 C 39.042969 83.460938 41.5625 82.253906 44.3125 81.476562 C 44.871094 81.316406 45.4375 81.1875 45.921875 81.070312 Z M 46.289062 81.757812 C 43.195312 82.378906 40.253906 83.472656 37.808594 85.675781 C 35.6875 87.585938 34.371094 89.964844 34.273438 92.878906 C 34.144531 96.863281 35.796875 99.988281 39.09375 102.125 C 42.015625 104.023438 45.226562 104.757812 48.671875 104.023438 C 52.574219 103.183594 55.125 100.386719 55.667969 96.378906 C 55.957031 94.214844 55.585938 92.121094 54.921875 90.0625 C 54.792969 89.664062 54.664062 89.40625 54.199219 89.558594 C 54.09375 89.589844 53.960938 89.550781 53.84375 89.53125 C 52.902344 89.394531 52.09375 88.949219 51.417969 88.3125 C 50.765625 87.703125 50.207031 86.992188 49.585938 86.335938 C 49.355469 86.085938 49.050781 85.910156 48.851562 85.640625 C 48.523438 85.210938 48.167969 84.816406 47.910156 84.296875 C 47.476562 83.421875 46.863281 82.628906 46.289062 81.757812 Z M 49.933594 85.574219 C 49.910156 85.621094 49.890625 85.667969 49.863281 85.71875 C 50.160156 86.042969 50.445312 86.375 50.765625 86.671875 C 51.355469 87.207031 51.921875 87.789062 52.578125 88.222656 C 54.0625 89.207031 55.320312 88.960938 56.3125 87.480469 C 56.816406 86.734375 57.144531 85.871094 57.550781 85.058594 C 57.707031 84.742188 57.84375 84.421875 58.011719 84.035156 C 57.417969 84.15625 57.222656 84.558594 56.996094 84.960938 C 56.777344 85.351562 56.558594 85.777344 56.242188 86.074219 C 54.847656 87.359375 52.140625 87.546875 50.652344 85.988281 C 50.46875 85.796875 50.179688 85.714844 49.933594 85.574219 Z M 50.316406 80.578125 C 50.300781 81.59375 51.078125 82.417969 52.0625 82.445312 C 53.054688 82.464844 53.882812 81.664062 53.90625 80.667969 C 53.925781 79.632812 53.140625 78.800781 52.132812 78.789062 C 51.132812 78.777344 50.328125 79.570312 50.316406 80.578125 Z M 50.316406 80.578125 " fill-opacity="1" fill-rule="nonzero"/></g><path fill="#1082ce" d="M 52.128906 79.117188 C 52.941406 79.125 53.585938 79.792969 53.585938 80.609375 C 53.585938 81.441406 52.902344 82.128906 52.089844 82.117188 C 51.261719 82.105469 50.617188 81.417969 50.632812 80.570312 C 50.652344 79.753906 51.308594 79.109375 52.128906 79.117188 Z M 52.128906 79.117188 " fill-opacity="1" fill-rule="nonzero"/><g clip-path="url(#f5a8d6bd40)"><g clip-path="url(#685ba00033)"><g clip-path="url(#92b7508913)"><g clip-path="url(#73d4224f1c)"><path fill="#80cc28" d="M 39.230469 51.199219 C 39.230469 51.199219 34.679688 56.945312 38.167969 59.503906 C 36.289062 57.457031 39.34375 53.601562 39.34375 53.601562 C 39.34375 53.601562 42.742188 57.15625 41.0625 59.367188 C 44.296875 56.496094 39.230469 51.199219 39.230469 51.199219 " fill-opacity="1" fill-rule="nonzero"/></g></g></g></g><g clip-path="url(#b2730bda6b)"><g clip-path="url(#0f54c25007)"><g clip-path="url(#cbf72af804)"><g clip-path="url(#62e0a15b66)"><path fill="#80cc28" d="M 54.699219 63.320312 C 54.699219 63.320312 47.410156 62.375 46.984375 66.664062 C 47.789062 64.011719 52.683594 64.648438 52.683594 64.648438 C 52.683594 64.648438 51.347656 69.375 48.578125 69.070312 C 52.714844 70.367188 54.699219 63.320312 54.699219 63.320312 " fill-opacity="1" fill-rule="nonzero"/></g></g></g></g><g clip-path="url(#389d412773)"><g clip-path="url(#e2d8f16e6c)"><g clip-path="url(#6f080761ef)"><g clip-path="url(#1754b0925f)"><path fill="#80cc28" d="M 24.957031 64.707031 C 24.957031 64.707031 32.128906 63.085938 32.949219 67.320312 C 31.902344 64.753906 27.089844 65.839844 27.089844 65.839844 C 27.089844 65.839844 28.855469 70.421875 31.585938 69.863281 C 27.589844 71.535156 24.957031 64.707031 24.957031 64.707031 " fill-opacity="1" fill-rule="nonzero"/></g></g></g></g><g clip-path="url(#b5ff88bb0d)"><g clip-path="url(#501dce4699)"><g clip-path="url(#4fa6c0ad02)"><g clip-path="url(#ab891fb429)"><path fill="#1082ce" d="M 57.066406 68.808594 C 57.066406 68.808594 52.3125 67.652344 48.175781 74.472656 C 44.375 80.742188 45.523438 83.847656 33.824219 79.460938 C 21.304688 74.769531 31.484375 71.519531 31.484375 71.519531 C 31.484375 71.519531 24.273438 72.410156 25.371094 76.027344 C 26.625 80.179688 37.910156 85.175781 40.074219 88.8125 C 41.535156 91.269531 41.8125 98.253906 37.710938 101.558594 C 37.710938 101.558594 46.378906 98.996094 48.960938 82.339844 C 51.007812 69.15625 57.066406 68.808594 57.066406 68.808594 " fill-opacity="1" fill-rule="nonzero"/></g></g></g></g><g clip-path="url(#98f020f985)"><g clip-path="url(#2dcbddc023)"><g clip-path="url(#86ff28ce19)"><g clip-path="url(#6bd3e7a2ee)"><path fill="#4f4c4c" d="M 44.679688 75.632812 C 44.164062 73.730469 42.367188 72.640625 40.664062 73.195312 C 38.964844 73.75 38 75.742188 38.515625 77.644531 C 39.03125 79.546875 40.832031 80.640625 42.53125 80.085938 C 44.234375 79.527344 45.195312 77.535156 44.679688 75.632812 " fill-opacity="1" fill-rule="nonzero"/></g></g></g></g><g clip-path="url(#2f9cb12327)"><g clip-path="url(#38476de365)"><g clip-path="url(#410dfa7672)"><g clip-path="url(#35da4a916a)"><g clip-path="url(#829b9aace2)"><g clip-path="url(#cdcad918ca)"><g clip-path="url(#29d2374054)"><g clip-path="url(#39fdee3621)"><g clip-path="url(#9f28c0b1e0)"><g clip-path="url(#efccfec457)"><g clip-path="url(#7c571291f7)"><path fill="url(#601bed13e2)" d="M 44.730469 72.988281 L 38.082031 73.296875 L 38.40625 80.292969 L 45.058594 79.980469 Z M 44.730469 72.988281 " fill-rule="nonzero"/></g></g></g></g></g></g></g></g></g></g></g><g fill="#183e9f" fill-opacity="1"><g transform="translate(73.247691, 91.980859)"><g><path d="M 12.65625 -0.015625 L 10.484375 -0.015625 L 10.484375 -8 C 10.484375 -8.144531 10.507812 -8.53125 10.5625 -9.15625 C 10.53125 -9.070312 10.488281 -8.953125 10.4375 -8.796875 C 10.382812 -8.640625 10.335938 -8.492188 10.296875 -8.359375 C 10.253906 -8.234375 10.210938 -8.113281 10.171875 -8 L 7.296875 0 L 6.09375 0 L 3.140625 -8 C 3.097656 -8.113281 3.050781 -8.234375 3 -8.359375 C 2.957031 -8.492188 2.910156 -8.640625 2.859375 -8.796875 C 2.816406 -8.953125 2.78125 -9.070312 2.75 -9.15625 C 2.75 -9.0625 2.757812 -8.878906 2.78125 -8.609375 C 2.8125 -8.335938 2.828125 -8.132812 2.828125 -8 L 2.828125 -0.015625 L 1.078125 -0.015625 L 1.078125 -10.796875 C 1.078125 -10.804688 1.054688 -10.882812 1.015625 -11.03125 C 0.984375 -11.1875 0.945312 -11.34375 0.90625 -11.5 C 0.875 -11.664062 0.859375 -11.757812 0.859375 -11.78125 L 3.9375 -11.78125 L 6.453125 -5.015625 C 6.566406 -4.691406 6.722656 -4.046875 6.921875 -3.078125 C 6.941406 -3.148438 6.992188 -3.421875 7.078125 -3.890625 C 7.171875 -4.359375 7.265625 -4.710938 7.359375 -4.953125 L 9.8125 -11.78125 L 12.65625 -11.78125 Z M 12.65625 -0.015625 "/></g></g></g><g fill="#183e9f" fill-opacity="1"><g transform="translate(86.736444, 91.980859)"><g><path d="M 8.234375 0 L 1.078125 0 L 1.078125 -10.796875 L 0.84375 -11.78125 L 8.234375 -11.78125 L 8.234375 -10.1875 L 3.28125 -10.1875 L 3.28125 -6.859375 L 7.078125 -6.859375 L 7.078125 -5.265625 L 3.28125 -5.265625 L 3.28125 -1.59375 L 8.234375 -1.59375 Z M 8.234375 0 "/></g></g></g><g fill="#183e9f" fill-opacity="1"><g transform="translate(95.573346, 91.980859)"><g><path d="M 10.9375 -5.875 C 10.9375 -4.070312 10.382812 -2.625 9.28125 -1.53125 C 8.257812 -0.507812 6.921875 0 5.265625 0 L 1.078125 0 L 1.078125 -10.796875 C 1.078125 -10.804688 1.035156 -10.960938 0.953125 -11.265625 C 0.878906 -11.578125 0.835938 -11.75 0.828125 -11.78125 L 5.28125 -11.78125 C 7.050781 -11.78125 8.4375 -11.238281 9.4375 -10.15625 C 10.4375 -9.082031 10.9375 -7.65625 10.9375 -5.875 Z M 8.5625 -5.8125 C 8.5625 -6.582031 8.453125 -7.285156 8.234375 -7.921875 C 8.023438 -8.554688 7.65625 -9.09375 7.125 -9.53125 C 6.59375 -9.96875 5.929688 -10.1875 5.140625 -10.1875 L 3.296875 -10.1875 L 3.296875 -1.59375 L 5.171875 -1.59375 C 5.753906 -1.59375 6.269531 -1.707031 6.71875 -1.9375 C 7.175781 -2.164062 7.53125 -2.484375 7.78125 -2.890625 C 8.039062 -3.296875 8.234375 -3.738281 8.359375 -4.21875 C 8.492188 -4.707031 8.5625 -5.238281 8.5625 -5.8125 Z M 8.5625 -5.8125 "/></g></g></g><g fill="#183e9f" fill-opacity="1"><g transform="translate(106.824705, 91.980859)"><g><path d="M 3.28125 0 L 1.0625 0 L 1.0625 -10.796875 C 1.0625 -10.804688 1.039062 -10.882812 1 -11.03125 C 0.96875 -11.1875 0.929688 -11.34375 0.890625 -11.5 C 0.859375 -11.664062 0.84375 -11.757812 0.84375 -11.78125 L 3.28125 -11.78125 Z M 3.28125 0 "/></g></g></g><g fill="#183e9f" fill-opacity="1"><g transform="translate(111.138531, 91.980859)"><g><path d="M 9.84375 -1 C 9.164062 -0.582031 8.535156 -0.28125 7.953125 -0.09375 C 7.367188 0.09375 6.703125 0.1875 5.953125 0.1875 C 4.140625 0.1875 2.75 -0.378906 1.78125 -1.515625 C 0.8125 -2.648438 0.328125 -4.132812 0.328125 -5.96875 C 0.328125 -7.71875 0.832031 -9.160156 1.84375 -10.296875 C 2.863281 -11.429688 4.238281 -12 5.96875 -12 C 6.632812 -12 7.332031 -11.898438 8.0625 -11.703125 C 8.789062 -11.515625 9.363281 -11.234375 9.78125 -10.859375 L 8.625 -9.375 C 8.332031 -9.695312 7.945312 -9.953125 7.46875 -10.140625 C 6.988281 -10.335938 6.515625 -10.4375 6.046875 -10.4375 C 5.253906 -10.4375 4.597656 -10.210938 4.078125 -9.765625 C 3.554688 -9.316406 3.195312 -8.773438 3 -8.140625 C 2.8125 -7.503906 2.71875 -6.796875 2.71875 -6.015625 C 2.71875 -5.503906 2.785156 -4.984375 2.921875 -4.453125 C 3.054688 -3.921875 3.25 -3.414062 3.5 -2.9375 C 3.757812 -2.457031 4.113281 -2.066406 4.5625 -1.765625 C 5.019531 -1.460938 5.523438 -1.3125 6.078125 -1.3125 C 7.078125 -1.3125 7.992188 -1.71875 8.828125 -2.53125 Z M 9.84375 -1 "/></g></g></g><g fill="#183e9f" fill-opacity="1"><g transform="translate(121.182665, 91.980859)"><g><path d="M 10.125 0 L 7.734375 0 L 6.578125 -3.375 L 3.109375 -3.375 L 1.90625 0 L 0.03125 0 L 4.203125 -11.78125 L 5.953125 -11.78125 Z M 6.046875 -4.953125 C 5.535156 -6.535156 5.128906 -7.878906 4.828125 -8.984375 C 4.460938 -7.640625 4.070312 -6.296875 3.65625 -4.953125 Z M 6.046875 -4.953125 "/></g></g></g><g fill="#183e9f" fill-opacity="1"><g transform="translate(131.33947, 91.980859)"><g><path d="M 9.9375 0 L 7.421875 0 L 4.15625 -5.25 L 3.265625 -5.25 L 3.265625 0 L 1.0625 0 L 1.0625 -10.796875 C 1.0625 -10.816406 1.023438 -10.972656 0.953125 -11.265625 C 0.878906 -11.566406 0.835938 -11.738281 0.828125 -11.78125 L 4.859375 -11.78125 C 6.046875 -11.78125 7.003906 -11.523438 7.734375 -11.015625 C 8.460938 -10.515625 8.828125 -9.695312 8.828125 -8.5625 C 8.828125 -7.894531 8.578125 -7.269531 8.078125 -6.6875 C 7.578125 -6.113281 6.992188 -5.742188 6.328125 -5.578125 Z M 6.5 -8.578125 C 6.5 -9.078125 6.320312 -9.46875 5.96875 -9.75 C 5.613281 -10.03125 5.175781 -10.171875 4.65625 -10.171875 L 3.265625 -10.171875 L 3.265625 -6.828125 L 4.296875 -6.828125 C 5.765625 -6.828125 6.5 -7.410156 6.5 -8.578125 Z M 6.5 -8.578125 "/></g></g></g><g fill="#183e9f" fill-opacity="1"><g transform="translate(140.852421, 91.980859)"><g><path d="M 8.234375 0 L 1.078125 0 L 1.078125 -10.796875 L 0.84375 -11.78125 L 8.234375 -11.78125 L 8.234375 -10.1875 L 3.28125 -10.1875 L 3.28125 -6.859375 L 7.078125 -6.859375 L 7.078125 -5.265625 L 3.28125 -5.265625 L 3.28125 -1.59375 L 8.234375 -1.59375 Z M 8.234375 0 "/></g></g></g></svg>